<svg width="48" height="48" viewBox="0 0 48 48" fill="none" xmlns="http://www.w3.org/2000/svg">
<circle cx="24" cy="24" r="22" stroke="white" stroke-width="3"/>
<path d="M15 34H13.5C13.5 34.8284 14.1716 35.5 15 35.5V34ZM34 34V35.5C34.8284 35.5 35.5 34.8284 35.5 34H34ZM16.5 34C16.5 30.1097 19.9632 26.75 24.5 26.75V23.75C18.5434 23.75 13.5 28.2253 13.5 34H16.5ZM24.5 26.75C29.0368 26.75 32.5 30.1097 32.5 34H35.5C35.5 28.2253 30.4566 23.75 24.5 23.75V26.75ZM15 35.5H34V32.5H15V35.5ZM28.7 19.625C28.7 21.8845 26.8384 23.75 24.5 23.75V26.75C28.4577 26.75 31.7 23.5787 31.7 19.625H28.7ZM24.5 23.75C22.1616 23.75 20.3 21.8845 20.3 19.625H17.3C17.3 23.5787 20.5423 26.75 24.5 26.75V23.75ZM20.3 19.625C20.3 17.3655 22.1616 15.5 24.5 15.5V12.5C20.5423 12.5 17.3 15.6713 17.3 19.625H20.3ZM24.5 15.5C26.8384 15.5 28.7 17.3655 28.7 19.625H31.7C31.7 15.6713 28.4577 12.5 24.5 12.5V15.5Z" fill="white"/>
</svg>
