<svg width="845" height="127" viewBox="0 0 845 127" fill="none" xmlns="http://www.w3.org/2000/svg">
<mask id="mask0_448_1538" style="mask-type:alpha" maskUnits="userSpaceOnUse" x="1" y="0" width="844" height="126">
<path d="M54.588 31.0967H6.47614C5.56345 29.6624 4.71595 27.7067 3.93365 25.2294C3.15134 22.7521 2.76019 20.1444 2.76019 17.4063C2.76019 12.3213 3.86846 8.67055 6.08499 6.45402C8.43191 4.23749 11.4307 3.12922 15.0815 3.12922H88.0316C93.7685 7.82306 96.6369 14.0815 96.6369 21.9046C96.6369 25.1642 95.8546 28.4238 94.29 31.6834C92.8558 34.8126 90.9652 37.8115 88.6183 40.6799L44.2224 94.2679H94.29C95.2027 95.7021 96.0502 97.6579 96.8325 100.135C97.6148 102.612 98.006 105.22 98.006 107.958C98.006 113.043 96.8325 116.694 94.4856 118.911C92.2691 121.127 89.3354 122.235 85.6846 122.235H8.62749C6.41095 120.41 4.58557 117.933 3.15134 114.803C1.71711 111.674 1 108.089 1 104.047C1 100.787 1.8475 97.4623 3.54249 94.0723C5.23749 90.6823 7.25845 87.5531 9.60537 84.6846L54.588 31.0967Z" fill="#FF8F3E"/>
<path d="M109.242 18.1886C109.894 16.3632 110.807 14.5379 111.98 12.7125C113.154 10.8871 114.588 9.25729 116.283 7.82305C118.109 6.25845 120.195 5.01979 122.542 4.1071C124.889 3.06402 127.496 2.54249 130.365 2.54249C134.146 2.54249 137.471 3.52037 140.339 5.47614C143.208 7.30152 146.141 10.4959 149.14 15.0594L164.395 38.333L186.886 5.08498C187.929 4.56344 189.364 4.1071 191.189 3.71595C193.145 3.19441 195.035 2.93364 196.861 2.93364C202.858 2.93364 207.552 4.36788 210.942 7.23633C214.332 10.1048 216.027 13.6252 216.027 17.7975C216.027 21.4482 215.049 24.7078 213.094 27.5763C211.268 30.4447 208.726 33.8999 205.466 37.9418L185.322 62.5845L217.201 108.154C216.158 112.978 213.876 116.824 210.355 119.693C206.965 122.431 202.337 123.8 196.47 123.8C192.688 123.8 189.429 122.887 186.691 121.062C183.953 119.106 181.149 115.846 178.281 111.283L162.439 86.2492L137.797 123.409C136.754 123.539 135.776 123.604 134.863 123.604C133.95 123.735 133.038 123.8 132.125 123.8C124.693 123.8 119.217 122.301 115.696 119.302C112.176 116.303 110.416 112.587 110.416 108.154C110.416 104.373 111.198 101.113 112.763 98.375C114.458 95.5065 116.805 92.1817 119.804 88.4006L140.339 61.9977L109.242 18.1886Z" fill="#FF8F3E"/>
<path d="M292.867 27.5763C282.828 27.5763 275.135 30.6403 269.789 36.7684C264.444 42.8964 261.771 51.567 261.771 62.7801C261.771 74.1235 264.704 82.8592 270.572 88.9873C276.569 95.1154 284.588 98.1794 294.628 98.1794C299.973 98.1794 304.472 97.4623 308.122 96.0281C311.904 94.5938 315.489 92.964 318.879 91.1386C321.096 92.964 322.791 95.1806 323.964 97.7883C325.268 100.266 325.92 103.199 325.92 106.589C325.92 111.935 322.921 116.498 316.923 120.28C311.056 123.93 302.059 125.756 289.934 125.756C281.198 125.756 272.984 124.517 265.291 122.04C257.598 119.562 250.884 115.781 245.147 110.696C239.41 105.481 234.846 98.9617 231.456 91.1386C228.197 83.1852 226.567 73.7323 226.567 62.7801C226.567 52.6101 228.132 43.6788 231.261 35.9861C234.52 28.163 238.888 21.5786 244.364 16.2328C249.971 10.8871 256.49 6.84518 263.922 4.1071C271.354 1.36903 279.307 0 287.782 0C299.778 0 309.035 1.95576 315.554 5.86729C322.204 9.77882 325.529 14.7986 325.529 20.9267C325.529 24.3167 324.681 27.2503 322.986 29.7276C321.291 32.2049 319.335 34.1607 317.119 35.5949C313.729 33.3784 310.078 31.4878 306.167 29.9232C302.385 28.3586 297.952 27.5763 292.867 27.5763Z" fill="#FF8F3E"/>
<path d="M388.561 58.6729C394.037 58.6729 398.209 57.4343 401.078 54.957C404.077 52.3493 405.576 48.4378 405.576 43.2224C405.576 38.2678 404.011 34.4867 400.882 31.879C397.883 29.1409 393.45 27.7719 387.583 27.7719C385.497 27.7719 383.737 27.837 382.302 27.9674C380.999 27.9674 379.63 28.0978 378.195 28.3586V58.6729H388.561ZM378.391 121.453C376.957 121.844 374.675 122.235 371.546 122.626C368.547 123.018 365.548 123.213 362.549 123.213C359.55 123.213 356.877 122.952 354.531 122.431C352.314 122.04 350.423 121.257 348.859 120.084C347.294 118.911 346.121 117.281 345.338 115.195C344.556 113.108 344.165 110.37 344.165 106.98V14.8638C344.165 12.1257 344.882 10.0396 346.316 8.60536C347.881 7.04075 349.967 5.8021 352.575 4.88941C357.008 3.3248 362.028 2.21652 367.634 1.5646C373.371 0.782297 379.108 0.391149 384.845 0.391149C402.838 0.391149 416.593 4.23749 426.112 11.9302C435.63 19.6228 440.389 30.0536 440.389 43.2224C440.389 49.6112 439.346 55.4133 437.259 60.6287C435.304 65.7137 432.305 70.1468 428.263 73.9279C424.351 77.5787 419.332 80.4471 413.203 82.5333C407.206 84.489 400.23 85.4669 392.277 85.4669H378.391V121.453Z" fill="#FF8F3E"/>
<path d="M492.032 121.453C490.597 121.844 488.316 122.235 485.186 122.626C482.188 123.018 479.189 123.213 476.19 123.213C473.191 123.213 470.518 122.952 468.171 122.431C465.955 122.04 464.064 121.257 462.499 120.084C460.935 118.911 459.761 117.281 458.979 115.195C458.197 113.108 457.806 110.37 457.806 106.98V3.71595C459.24 3.45518 461.522 3.12922 464.651 2.73807C467.78 2.21653 470.779 1.95576 473.647 1.95576C476.646 1.95576 479.254 2.21653 481.47 2.73807C483.817 3.12922 485.773 3.91152 487.338 5.08498C488.902 6.25844 490.076 7.88825 490.858 9.9744C491.64 12.0605 492.032 14.7986 492.032 18.1886V121.453Z" fill="#FF8F3E"/>
<path d="M564.92 31.0967H516.809C515.896 29.6624 515.048 27.7067 514.266 25.2294C513.484 22.7521 513.093 20.1444 513.093 17.4063C513.093 12.3213 514.201 8.67055 516.417 6.45402C518.764 4.23749 521.763 3.12922 525.414 3.12922H598.364C604.101 7.82306 606.969 14.0815 606.969 21.9046C606.969 25.1642 606.187 28.4238 604.622 31.6834C603.188 34.8126 601.298 37.8115 598.951 40.6799L554.555 94.2679H604.622C605.535 95.7021 606.383 97.6579 607.165 100.135C607.947 102.612 608.338 105.22 608.338 107.958C608.338 113.043 607.165 116.694 604.818 118.911C602.602 121.127 599.668 122.235 596.017 122.235H518.96C516.743 120.41 514.918 117.933 513.484 114.803C512.05 111.674 511.332 108.089 511.332 104.047C511.332 100.787 512.18 97.4623 513.875 94.0723C515.57 90.6823 517.591 87.5531 519.938 84.6846L564.92 31.0967Z" fill="#FF8F3E"/>
<path d="M675.314 31.0967H627.202C626.29 29.6624 625.442 27.7067 624.66 25.2294C623.878 22.7521 623.486 20.1444 623.486 17.4063C623.486 12.3213 624.595 8.67055 626.811 6.45402C629.158 4.23749 632.157 3.12922 635.808 3.12922H708.758C714.495 7.82306 717.363 14.0815 717.363 21.9046C717.363 25.1642 716.581 28.4238 715.016 31.6834C713.582 34.8126 711.691 37.8115 709.345 40.6799L664.949 94.2679H715.016C715.929 95.7021 716.776 97.6579 717.559 100.135C718.341 102.612 718.732 105.22 718.732 107.958C718.732 113.043 717.559 116.694 715.212 118.911C712.995 121.127 710.062 122.235 706.411 122.235H629.354C627.137 120.41 625.312 117.933 623.878 114.803C622.443 111.674 621.726 108.089 621.726 104.047C621.726 100.787 622.574 97.4623 624.269 94.0723C625.964 90.6823 627.985 87.5531 630.332 84.6846L675.314 31.0967Z" fill="#FF8F3E"/>
<path d="M763.412 7.23633C765.629 5.93248 768.954 4.69383 773.387 3.52037C777.95 2.34691 782.514 1.76018 787.077 1.76018C793.596 1.76018 799.333 2.73806 804.288 4.69383C809.373 6.51921 812.632 9.45286 814.067 13.4948C816.414 20.2748 818.956 28.163 821.694 37.1595C824.432 46.1561 827.17 55.4785 829.908 65.127C832.646 74.645 835.319 84.0979 837.927 93.4856C840.535 102.743 842.816 110.957 844.772 118.128C843.208 119.954 840.861 121.388 837.731 122.431C834.602 123.604 830.886 124.191 826.584 124.191C823.454 124.191 820.781 123.93 818.565 123.409C816.479 122.887 814.719 122.105 813.284 121.062C811.98 120.019 810.872 118.65 809.959 116.955C809.177 115.26 808.46 113.304 807.808 111.087L804.288 97.5927H768.888C767.845 101.504 766.802 105.546 765.759 109.718C764.716 113.891 763.673 117.933 762.63 121.844C760.805 122.496 758.849 123.018 756.763 123.409C754.807 123.93 752.395 124.191 749.526 124.191C742.877 124.191 737.922 123.083 734.663 120.866C731.533 118.519 729.969 115.325 729.969 111.283C729.969 109.458 730.229 107.632 730.751 105.807C731.273 103.982 731.859 101.83 732.511 99.3529C733.424 95.8325 734.663 91.4646 736.227 86.2492C737.922 81.0339 739.747 75.4273 741.703 69.4296C743.659 63.3016 745.745 57.0431 747.962 50.6543C750.178 44.2655 752.264 38.2678 754.22 32.6613C756.176 26.9244 757.936 21.8394 759.501 17.4063C761.196 12.9732 762.5 9.58324 763.412 7.23633ZM786.881 32.4657C785.056 37.9418 782.97 44.0699 780.623 50.8499C778.406 57.4995 776.385 64.2795 774.56 71.1898H798.812C796.986 64.1491 795.096 57.3039 793.14 50.6543C791.315 43.8743 789.62 37.8115 788.055 32.4657H786.881Z" fill="#FF8F3E"/>
</mask>
<g mask="url(#mask0_448_1538)">
<rect x="-70.9766" y="-17.4774" width="400.129" height="179.65" fill="white"/>
<rect x="328.85" y="-18.9268" width="517.331" height="189.268" fill="#FF8F3E"/>
<circle cx="18.8486" cy="137.675" r="40.8295" fill="#0C0C0C"/>
<circle cx="235.244" cy="27.4355" r="28.5807" fill="#0C0C0C"/>
<circle cx="798.692" cy="166.255" r="85.742" fill="black"/>
<circle cx="443.529" cy="57.8993" r="32.6636" fill="black"/>
</g>
</svg>
