<svg width="206" height="204" viewBox="0 0 206 204" fill="none" xmlns="http://www.w3.org/2000/svg">
<path d="M40.5001 154.083H165.5M40.5001 121.479C29.9372 119.211 20.6682 112.929 14.6485 103.957C8.62878 94.9862 6.32898 84.0275 8.23425 73.3932C10.1395 62.7588 16.1009 53.2802 24.8608 46.9569C33.6207 40.6336 44.4942 37.96 55.1876 39.5001C57.8192 33.5275 61.5267 28.0899 66.1251 23.4584C70.9632 18.6081 76.7107 14.7599 83.0383 12.1342C89.3659 9.50852 96.1494 8.15698 103 8.15698C109.851 8.15698 116.634 9.50852 122.962 12.1342C129.29 14.7599 135.037 18.6081 139.875 23.4584C144.474 28.0899 148.181 33.5275 150.813 39.5001C161.506 37.96 172.38 40.6336 181.139 46.9569C189.899 53.2802 195.861 62.7588 197.766 73.3932C199.671 84.0275 197.371 94.9862 191.352 103.957C185.332 112.929 176.063 119.211 165.5 121.479V195.75H40.5001V121.479Z" stroke="#FF8F3E" stroke-width="15" stroke-linecap="round" stroke-linejoin="round"/>
</svg>
