<svg width="250" height="173" viewBox="0 0 250 173" fill="none" xmlns="http://www.w3.org/2000/svg">
<path d="M0 0.875V16.5H148.438V133.688H100.344C96.8594 120.258 84.7812 110.25 70.3125 110.25C55.8438 110.25 43.7656 120.258 40.2812 133.688H31.25V94.625H15.625V149.312H40.2812C43.7656 162.742 55.8438 172.75 70.3125 172.75C84.7812 172.75 96.8594 162.742 100.344 149.312H165.281C168.766 162.742 180.844 172.75 195.312 172.75C209.781 172.75 221.859 162.742 225.344 149.312H250V85.5938L249.508 84.3672L233.883 37.4922L232.188 32.125H164.062V0.875H0ZM7.8125 32.125V47.75H78.125V32.125H7.8125ZM164.062 47.75H220.945L234.375 87.7891V133.688H225.344C221.859 120.258 209.781 110.25 195.312 110.25C180.844 110.25 168.766 120.258 165.281 133.688H164.062V47.75ZM15.625 63.375V79H62.5V63.375H15.625ZM70.3125 125.875C79.0391 125.875 85.9375 132.773 85.9375 141.5C85.9375 150.227 79.0391 157.125 70.3125 157.125C61.5859 157.125 54.6875 150.227 54.6875 141.5C54.6875 132.773 61.5859 125.875 70.3125 125.875ZM195.312 125.875C204.039 125.875 210.938 132.773 210.938 141.5C210.938 150.227 204.039 157.125 195.312 157.125C186.586 157.125 179.688 150.227 179.688 141.5C179.688 132.773 186.586 125.875 195.312 125.875Z" fill="#FF8F3E"/>
</svg>
