<svg width="234" height="227" viewBox="0 0 234 227" fill="none" xmlns="http://www.w3.org/2000/svg">
<path d="M202.938 171.688H70.125L31.0625 7.625H7.625M38.875 38.875H226.375L202.938 140.438H62.3125L38.875 38.875Z" stroke="#FF8F3E" stroke-width="15" stroke-linecap="round" stroke-linejoin="round"/>
<path d="M187.312 218.562C195.942 218.562 202.938 211.567 202.938 202.938C202.938 194.308 195.942 187.312 187.312 187.312C178.683 187.312 171.688 194.308 171.688 202.938C171.688 211.567 178.683 218.562 187.312 218.562Z" stroke="#FF8F3E" stroke-width="15" stroke-linecap="round" stroke-linejoin="round"/>
<path d="M85.75 218.562C94.3794 218.562 101.375 211.567 101.375 202.938C101.375 194.308 94.3794 187.312 85.75 187.312C77.1206 187.312 70.125 194.308 70.125 202.938C70.125 211.567 77.1206 218.562 85.75 218.562Z" stroke="#FF8F3E" stroke-width="15" stroke-linecap="round" stroke-linejoin="round"/>
</svg>
