<svg width="40" height="23" viewBox="0 0 40 23" fill="none" xmlns="http://www.w3.org/2000/svg">
<path d="M39 20.8125C39 20.3318 38.809 19.8708 38.4691 19.5309C38.1292 19.191 37.6682 19 37.1875 19H27.8125C27.3318 19 26.8708 19.191 26.5309 19.5309C26.191 19.8708 26 20.3318 26 20.8125C26 21.2932 26.191 21.7542 26.5309 22.0941C26.8708 22.434 27.3318 22.625 27.8125 22.625H37.1875C37.6682 22.625 38.1292 22.434 38.4691 22.0941C38.809 21.7542 39 21.2932 39 20.8125ZM39 11.4375C39 10.9568 38.809 10.4958 38.4691 10.1559C38.1292 9.81596 37.6682 9.625 37.1875 9.625H15.3125C14.8318 9.625 14.3708 9.81596 14.0309 10.1559C13.691 10.4958 13.5 10.9568 13.5 11.4375C13.5 11.9182 13.691 12.3792 14.0309 12.7191C14.3708 13.059 14.8318 13.25 15.3125 13.25H37.1875C37.6682 13.25 38.1292 13.059 38.4691 12.7191C38.809 12.3792 39 11.9182 39 11.4375ZM39 2.0625C39 1.5818 38.809 1.12078 38.4691 0.780869C38.1292 0.44096 37.6682 0.25 37.1875 0.25H2.8125C2.33179 0.25 1.87078 0.44096 1.53087 0.780869C1.19096 1.12078 1 1.58179 1 2.0625C1 2.54321 1.19096 3.00422 1.53087 3.34413C1.87078 3.68404 2.33179 3.875 2.8125 3.875H37.1875C37.6682 3.875 38.1292 3.68404 38.4691 3.34413C38.809 3.00422 39 2.5432 39 2.0625Z" fill="#B1B1B1" stroke="#B1B1B1" stroke-width="0.5"/>
</svg>
