<svg width="38" height="40" viewBox="0 0 38 40" fill="none" xmlns="http://www.w3.org/2000/svg">
<path d="M35.6667 0.25H2.33333C1.7808 0.25 1.25089 0.469493 0.860194 0.860194C0.469493 1.25089 0.25 1.7808 0.25 2.33333V7.72917C0.25 8.81875 0.69375 9.88958 1.46458 10.6604L12.75 21.9458V37.75C12.7504 38.1049 12.8414 38.4539 13.0144 38.7639C13.1873 39.0738 13.4366 39.3345 13.7384 39.5212C14.0403 39.7079 14.3848 39.8145 14.7394 39.8308C15.0939 39.8472 15.4468 39.7727 15.7646 39.6146L24.0979 35.4479C24.8042 35.0938 25.25 34.3729 25.25 33.5833V21.9458L36.5354 10.6604C37.3062 9.88958 37.75 8.81875 37.75 7.72917V2.33333C37.75 1.7808 37.5305 1.25089 37.1398 0.860194C36.7491 0.469493 36.2192 0.25 35.6667 0.25ZM21.6938 19.6104C21.4999 19.8036 21.3462 20.0331 21.2414 20.2859C21.1367 20.5387 21.0829 20.8097 21.0833 21.0833V32.2958L16.9167 34.3792V21.0833C16.9171 20.8097 16.8633 20.5387 16.7586 20.2859C16.6538 20.0331 16.5001 19.8036 16.3062 19.6104L4.41667 7.72917V4.41667H33.5854L33.5896 7.71458L21.6938 19.6104Z" fill="#B1B1B1"/>
</svg>
