<svg width="30" height="30" viewBox="0 0 30 30" fill="none" xmlns="http://www.w3.org/2000/svg">
<path d="M27 27C23.6982 23.697 18.5452 18.5421 18.5452 18.5421M21.2078 12.1071C21.2078 14.5225 20.2486 16.8389 18.5413 18.5469C16.834 20.2548 14.5184 21.2143 12.1039 21.2143C9.68939 21.2143 7.37378 20.2548 5.66647 18.5469C3.95916 16.8389 3 14.5225 3 12.1071C3 9.69178 3.95916 7.37534 5.66647 5.66742C7.37378 3.9595 9.68939 3 12.1039 3C14.5184 3 16.834 3.9595 18.5413 5.66742C20.2486 7.37534 21.2078 9.69178 21.2078 12.1071Z" stroke="white" stroke-width="3" stroke-linecap="round"/>
</svg>
