<svg width="23" height="23" viewBox="0 0 23 23" fill="none" xmlns="http://www.w3.org/2000/svg">
<path d="M19.9074 0.290203C20.2943 -0.0967338 20.9216 -0.0967344 21.3086 0.290202L22.7098 1.69142C23.0967 2.07836 23.0967 2.70571 22.7098 3.09264L3.0927 22.7097C2.70576 23.0967 2.07842 23.0967 1.69148 22.7097L0.290258 21.3085C-0.0966786 20.9216 -0.0966785 20.2942 0.290258 19.9073L19.9074 0.290203Z" fill="white"/>
<path d="M22.7097 19.9074C23.0967 20.2943 23.0967 20.9216 22.7097 21.3086L21.3085 22.7098C20.9216 23.0967 20.2942 23.0967 19.9073 22.7098L0.290203 3.0927C-0.0967339 2.70576 -0.0967344 2.07841 0.290202 1.69147L1.69142 0.290254C2.07836 -0.096683 2.70571 -0.0966829 3.09264 0.290254L22.7097 19.9074Z" fill="white"/>
</svg>
