<svg width="22" height="22" viewBox="0 0 22 22" fill="none" xmlns="http://www.w3.org/2000/svg">
<path d="M21.181 4.52943L17.4135 0.748281C16.9218 0.28474 16.2774 0.0187671 15.603 0.000955992C14.9286 -0.0168551 14.2713 0.214739 13.7559 0.651683L1.38079 13.0715C0.936342 13.5213 0.659605 14.1109 0.597036 14.7413L0.00577912 20.4958C-0.0127438 20.6979 0.0133889 20.9017 0.0823141 21.0925C0.151239 21.2833 0.26126 21.4565 0.404534 21.5998C0.533015 21.7277 0.685389 21.8289 0.852917 21.8975C1.02045 21.9662 1.19983 22.001 1.38079 22H1.50455L7.23836 21.4756C7.86646 21.4128 8.45392 21.1351 8.90213 20.689L21.2773 8.26917C21.7576 7.75992 22.0172 7.08033 21.9991 6.37934C21.9811 5.67835 21.6869 5.01312 21.181 4.52943ZM16.506 9.13856L12.8209 5.44021L15.5022 2.68025L19.256 6.4476L16.506 9.13856Z" fill="white"/>
</svg>
