<svg width="96" height="78" viewBox="0 0 96 78" fill="none" xmlns="http://www.w3.org/2000/svg">
<path d="M95.0125 9.57075C91.5333 11.1124 87.7958 12.1541 83.8667 12.6249C87.9208 10.199 90.9539 6.38102 92.4 1.88325C88.591 4.1457 84.4223 5.73823 80.075 6.59158C77.1516 3.47019 73.2794 1.40127 69.0597 0.706056C64.84 0.0108382 60.5087 0.728212 56.7385 2.7468C52.9682 4.76539 49.9699 7.97226 48.209 11.8695C46.4481 15.7668 46.0231 20.1364 47 24.2999C39.282 23.9124 31.7318 21.9064 24.8393 18.412C17.9468 14.9177 11.866 10.0131 6.99167 4.01658C5.32501 6.89158 4.36667 10.2249 4.36667 13.7749C4.36482 16.9707 5.15181 20.1176 6.65784 22.9363C8.16386 25.755 10.3423 28.1584 13 29.9333C9.91783 29.8352 6.90365 29.0023 4.20834 27.5041V27.7541C4.20803 32.2363 5.75848 36.5807 8.5966 40.0499C11.4347 43.5191 15.3857 45.8996 19.7792 46.7874C16.9199 47.5612 13.9222 47.6752 11.0125 47.1208C12.2521 50.9775 14.6667 54.35 17.9182 56.7663C21.1698 59.1825 25.0955 60.5215 29.1458 60.5958C22.2701 65.9933 13.7787 68.9211 5.03751 68.9082C3.4891 68.9087 1.94199 68.8182 0.404175 68.6374C9.27699 74.3423 19.6056 77.37 30.1542 77.3582C65.8625 77.3582 85.3833 47.7833 85.3833 22.1332C85.3833 21.2999 85.3625 20.4582 85.325 19.6249C89.1221 16.879 92.3996 13.4786 95.0042 9.58325L95.0125 9.57075V9.57075Z" fill="#FF8F3E"/>
</svg>
