<svg width="101" height="60" viewBox="0 0 101 60" fill="none" xmlns="http://www.w3.org/2000/svg">
<path fill-rule="evenodd" clip-rule="evenodd" d="M98.2083 4.7835C98.9 2.5085 98.2083 0.833496 94.8958 0.833496H83.9583C81.175 0.833496 79.8917 2.27933 79.1958 3.87516C79.1958 3.87516 73.6333 17.1918 65.7542 25.8418C63.2042 28.3502 62.0458 29.146 60.6542 29.146C59.9583 29.146 58.9125 28.3502 58.9125 26.071V4.7835C58.9125 2.05016 58.1458 0.833496 55.8292 0.833496H38.6292C36.8917 0.833496 35.8458 2.10016 35.8458 3.30433C35.8458 5.89183 39.7875 6.49183 40.1917 13.7752V29.6002C40.1917 33.071 39.5542 33.7002 38.1625 33.7002C34.4542 33.7002 25.4333 20.321 20.0792 5.01266C19.0417 2.0335 17.9917 0.833496 15.1958 0.833496H4.25C1.125 0.833496 0.5 2.27933 0.5 3.87516C0.5 6.71683 4.20833 20.8335 17.7708 39.5043C26.8125 52.2543 39.5417 59.1668 51.1375 59.1668C58.0917 59.1668 58.95 57.6335 58.95 54.9877V45.3502C58.95 42.2793 59.6083 41.6668 61.8125 41.6668C63.4375 41.6668 66.2167 42.4668 72.7083 48.6127C80.125 55.9002 81.3458 59.1668 85.5208 59.1668H96.4583C99.5833 59.1668 101.15 57.6335 100.25 54.6002C99.2583 51.5835 95.7167 47.2043 91.0208 42.0085C88.4708 39.0502 84.6458 35.8627 83.4833 34.2668C81.8625 32.221 82.325 31.3085 83.4833 29.4877C83.4833 29.4877 96.8167 11.046 98.2042 4.7835H98.2083Z" fill="#FF8F3E"/>
</svg>
