<svg width="95" height="95" viewBox="0 0 95 95" fill="none" xmlns="http://www.w3.org/2000/svg">
<path d="M47.4872 31.6599C38.7653 31.6599 31.6474 38.7779 31.6474 47.5C31.6474 56.2221 38.7653 63.3401 47.4872 63.3401C56.2092 63.3401 63.327 56.2221 63.327 47.5C63.327 38.7779 56.2092 31.6599 47.4872 31.6599ZM94.9947 47.5C94.9947 40.9406 95.0541 34.4406 94.6857 27.893C94.3174 20.2879 92.5825 13.5383 87.0213 7.97705C81.4483 2.40391 74.7107 0.680867 67.1057 0.312493C60.5464 -0.0558808 54.0465 0.00353454 47.4991 0.00353454C40.9398 0.00353454 34.4399 -0.0558808 27.8925 0.312493C20.2875 0.680867 13.5381 2.41579 7.9769 7.97705C2.40386 13.5502 0.680854 20.2879 0.312487 27.893C-0.0558797 34.4524 0.00353447 40.9524 0.00353447 47.5C0.00353447 54.0475 -0.0558797 60.5594 0.312487 67.107C0.680854 74.7121 2.41574 81.4617 7.9769 87.0229C13.5499 92.5961 20.2875 94.3191 27.8925 94.6875C34.4518 95.0559 40.9517 94.9965 47.4991 94.9965C54.0584 94.9965 60.5583 95.0559 67.1057 94.6875C74.7107 94.3191 81.4602 92.5842 87.0213 87.0229C92.5944 81.4498 94.3174 74.7121 94.6857 67.107C95.066 60.5594 94.9947 54.0594 94.9947 47.5ZM47.4872 71.8721C34.0002 71.8721 23.1156 60.9872 23.1156 47.5C23.1156 34.0128 34.0002 23.1279 47.4872 23.1279C60.9742 23.1279 71.8589 34.0128 71.8589 47.5C71.8589 60.9872 60.9742 71.8721 47.4872 71.8721ZM72.857 27.8217C69.7081 27.8217 67.1652 25.2787 67.1652 22.1297C67.1652 18.9807 69.7081 16.4378 72.857 16.4378C76.006 16.4378 78.5489 18.9807 78.5489 22.1297C78.5498 22.8775 78.4032 23.6181 78.1175 24.3091C77.8318 25.0001 77.4126 25.6279 76.8839 26.1567C76.3551 26.6854 75.7273 27.1046 75.0363 27.3903C74.3453 27.6761 73.6048 27.8226 72.857 27.8217Z" fill="#FF8F3E"/>
</svg>
