<svg width="269" height="41" viewBox="0 0 269 41" fill="none" xmlns="http://www.w3.org/2000/svg">
<mask id="mask0_110_381" style="mask-type:alpha" maskUnits="userSpaceOnUse" x="1" y="0" width="268" height="40">
<path d="M18.056 9.858H2.80399C2.51466 9.40333 2.24599 8.78333 1.99799 7.998C1.74999 7.21266 1.62599 6.386 1.62599 5.518C1.62599 3.906 1.97733 2.74866 2.67999 2.046C3.42399 1.34333 4.37466 0.991999 5.53199 0.991999H28.658C30.4767 2.48 31.386 4.464 31.386 6.944C31.386 7.97733 31.138 9.01066 30.642 10.044C30.1873 11.036 29.588 11.9867 28.844 12.896L14.77 29.884H30.642C30.9313 30.3387 31.2 30.9587 31.448 31.744C31.696 32.5293 31.82 33.356 31.82 34.224C31.82 35.836 31.448 36.9933 30.704 37.696C30.0013 38.3987 29.0713 38.75 27.914 38.75H3.48599C2.78333 38.1713 2.20466 37.386 1.74999 36.394C1.29533 35.402 1.06799 34.2653 1.06799 32.984C1.06799 31.9507 1.33666 30.8967 1.87399 29.822C2.41133 28.7473 3.05199 27.7553 3.79599 26.846L18.056 9.858Z" fill="#FF8F3E"/>
<path d="M35.3821 5.766C35.5887 5.18733 35.8781 4.60867 36.2501 4.03C36.6221 3.45133 37.0768 2.93467 37.6141 2.48C38.1928 1.984 38.8541 1.59133 39.5981 1.302C40.3421 0.971331 41.1688 0.805998 42.0781 0.805998C43.2768 0.805998 44.3308 1.116 45.2401 1.736C46.1494 2.31467 47.0794 3.32733 48.0301 4.774L52.8661 12.152L59.9961 1.612C60.3268 1.44666 60.7814 1.302 61.3601 1.178C61.9801 1.01267 62.5794 0.929998 63.1581 0.929998C65.0594 0.929998 66.5474 1.38467 67.6221 2.294C68.6968 3.20333 69.2341 4.31933 69.2341 5.642C69.2341 6.79933 68.9241 7.83266 68.3041 8.742C67.7254 9.65133 66.9194 10.7467 65.8861 12.028L59.5001 19.84L69.6061 34.286C69.2754 35.8153 68.5521 37.0347 67.4361 37.944C66.3614 38.812 64.8941 39.246 63.0341 39.246C61.8354 39.246 60.8021 38.9567 59.9341 38.378C59.0661 37.758 58.1774 36.7247 57.2681 35.278L52.2461 27.342L44.4341 39.122C44.1034 39.1633 43.7934 39.184 43.5041 39.184C43.2148 39.2253 42.9254 39.246 42.6361 39.246C40.2801 39.246 38.5441 38.7707 37.4281 37.82C36.3121 36.8693 35.7541 35.6913 35.7541 34.286C35.7541 33.0873 36.0021 32.054 36.4981 31.186C37.0354 30.2767 37.7794 29.2227 38.7301 28.024L45.2401 19.654L35.3821 5.766Z" fill="#FF8F3E"/>
<path d="M93.5933 8.742C90.4106 8.742 87.972 9.71333 86.2773 11.656C84.5826 13.5987 83.7353 16.3473 83.7353 19.902C83.7353 23.498 84.6653 26.2673 86.5253 28.21C88.4266 30.1527 90.9686 31.124 94.1513 31.124C95.846 31.124 97.272 30.8967 98.4293 30.442C99.628 29.9873 100.765 29.4707 101.839 28.892C102.542 29.4707 103.079 30.1733 103.451 31C103.865 31.7853 104.071 32.7153 104.071 33.79C104.071 35.4847 103.121 36.9313 101.219 38.13C99.3593 39.2873 96.5073 39.866 92.6633 39.866C89.894 39.866 87.29 39.4733 84.8513 38.688C82.4126 37.9027 80.284 36.704 78.4653 35.092C76.6466 33.4387 75.2 31.372 74.1253 28.892C73.092 26.3707 72.5753 23.374 72.5753 19.902C72.5753 16.678 73.0713 13.8467 74.0633 11.408C75.0966 8.928 76.4813 6.84066 78.2173 5.146C79.9946 3.45133 82.0613 2.17 84.4173 1.302C86.7733 0.433999 89.2946 0 91.9813 0C95.784 0 98.7186 0.62 100.785 1.86C102.893 3.1 103.947 4.69133 103.947 6.634C103.947 7.70867 103.679 8.63867 103.141 9.424C102.604 10.2093 101.984 10.8293 101.281 11.284C100.207 10.5813 99.0493 9.982 97.8093 9.486C96.6106 8.99 95.2053 8.742 93.5933 8.742Z" fill="#FF8F3E"/>
<path d="M123.929 18.6C125.665 18.6 126.988 18.2073 127.897 17.422C128.848 16.5953 129.323 15.3553 129.323 13.702C129.323 12.1313 128.827 10.9327 127.835 10.106C126.885 9.238 125.479 8.804 123.619 8.804C122.958 8.804 122.4 8.82466 121.945 8.866C121.532 8.866 121.098 8.90733 120.643 8.99V18.6H123.929ZM120.705 38.502C120.251 38.626 119.527 38.75 118.535 38.874C117.585 38.998 116.634 39.06 115.683 39.06C114.733 39.06 113.885 38.9773 113.141 38.812C112.439 38.688 111.839 38.44 111.343 38.068C110.847 37.696 110.475 37.1793 110.227 36.518C109.979 35.8567 109.855 34.9887 109.855 33.914V4.712C109.855 3.844 110.083 3.18266 110.537 2.728C111.033 2.232 111.695 1.83933 112.521 1.55C113.927 1.054 115.518 0.702663 117.295 0.495996C119.114 0.247997 120.933 0.123999 122.751 0.123999C128.455 0.123999 132.816 1.34333 135.833 3.782C138.851 6.22067 140.359 9.52733 140.359 13.702C140.359 15.7273 140.029 17.5667 139.367 19.22C138.747 20.832 137.797 22.2373 136.515 23.436C135.275 24.5933 133.684 25.5027 131.741 26.164C129.84 26.784 127.629 27.094 125.107 27.094H120.705V38.502Z" fill="#FF8F3E"/>
<path d="M156.731 38.502C156.276 38.626 155.553 38.75 154.561 38.874C153.61 38.998 152.659 39.06 151.709 39.06C150.758 39.06 149.911 38.9773 149.167 38.812C148.464 38.688 147.865 38.44 147.369 38.068C146.873 37.696 146.501 37.1793 146.253 36.518C146.005 35.8567 145.881 34.9887 145.881 33.914V1.178C146.335 1.09533 147.059 0.991998 148.051 0.868C149.043 0.702666 149.993 0.619999 150.903 0.619999C151.853 0.619999 152.68 0.702666 153.383 0.868C154.127 0.991998 154.747 1.24 155.243 1.612C155.739 1.984 156.111 2.50067 156.359 3.162C156.607 3.82333 156.731 4.69133 156.731 5.766V38.502Z" fill="#FF8F3E"/>
<path d="M179.837 9.858H164.585C164.296 9.40333 164.027 8.78333 163.779 7.998C163.531 7.21266 163.407 6.386 163.407 5.518C163.407 3.906 163.759 2.74866 164.461 2.046C165.205 1.34333 166.156 0.991999 167.313 0.991999H190.439C192.258 2.48 193.167 4.464 193.167 6.944C193.167 7.97733 192.919 9.01066 192.423 10.044C191.969 11.036 191.369 11.9867 190.625 12.896L176.551 29.884H192.423C192.713 30.3387 192.981 30.9587 193.229 31.744C193.477 32.5293 193.601 33.356 193.601 34.224C193.601 35.836 193.229 36.9933 192.485 37.696C191.783 38.3987 190.853 38.75 189.695 38.75H165.267C164.565 38.1713 163.986 37.386 163.531 36.394C163.077 35.402 162.849 34.2653 162.849 32.984C162.849 31.9507 163.118 30.8967 163.655 29.822C164.193 28.7473 164.833 27.7553 165.577 26.846L179.837 9.858Z" fill="#FF8F3E"/>
<path d="M214.833 9.858H199.581C199.292 9.40333 199.023 8.78333 198.775 7.998C198.527 7.21266 198.403 6.386 198.403 5.518C198.403 3.906 198.755 2.74866 199.457 2.046C200.201 1.34333 201.152 0.991999 202.309 0.991999H225.435C227.254 2.48 228.163 4.464 228.163 6.944C228.163 7.97733 227.915 9.01066 227.419 10.044C226.965 11.036 226.365 11.9867 225.621 12.896L211.547 29.884H227.419C227.709 30.3387 227.977 30.9587 228.225 31.744C228.473 32.5293 228.597 33.356 228.597 34.224C228.597 35.836 228.225 36.9933 227.481 37.696C226.779 38.3987 225.849 38.75 224.691 38.75H200.263C199.561 38.1713 198.982 37.386 198.527 36.394C198.073 35.402 197.845 34.2653 197.845 32.984C197.845 31.9507 198.114 30.8967 198.651 29.822C199.189 28.7473 199.829 27.7553 200.573 26.846L214.833 9.858Z" fill="#FF8F3E"/>
<path d="M242.761 2.294C243.464 1.88067 244.518 1.488 245.923 1.116C247.37 0.743997 248.817 0.557997 250.263 0.557997C252.33 0.557997 254.149 0.867997 255.719 1.488C257.331 2.06667 258.365 2.99666 258.819 4.278C259.563 6.42733 260.369 8.928 261.237 11.78C262.105 14.632 262.973 17.5873 263.841 20.646C264.709 23.6633 265.557 26.66 266.383 29.636C267.21 32.5707 267.933 35.1747 268.553 37.448C268.057 38.0267 267.313 38.4813 266.321 38.812C265.329 39.184 264.151 39.37 262.787 39.37C261.795 39.37 260.948 39.2873 260.245 39.122C259.584 38.9567 259.026 38.7087 258.571 38.378C258.158 38.0473 257.807 37.6133 257.517 37.076C257.269 36.5387 257.042 35.9187 256.835 35.216L255.719 30.938H244.497C244.167 32.178 243.836 33.4593 243.505 34.782C243.175 36.1047 242.844 37.386 242.513 38.626C241.935 38.8327 241.315 38.998 240.653 39.122C240.033 39.2873 239.269 39.37 238.359 39.37C236.251 39.37 234.681 39.0187 233.647 38.316C232.655 37.572 232.159 36.5593 232.159 35.278C232.159 34.6993 232.242 34.1207 232.407 33.542C232.573 32.9633 232.759 32.2813 232.965 31.496C233.255 30.38 233.647 28.9953 234.143 27.342C234.681 25.6887 235.259 23.9113 235.879 22.01C236.499 20.0673 237.161 18.0833 237.863 16.058C238.566 14.0327 239.227 12.1313 239.847 10.354C240.467 8.53533 241.025 6.92333 241.521 5.518C242.059 4.11266 242.472 3.038 242.761 2.294ZM250.201 10.292C249.623 12.028 248.961 13.9707 248.217 16.12C247.515 18.228 246.874 20.3773 246.295 22.568H253.983C253.405 20.336 252.805 18.166 252.185 16.058C251.607 13.9087 251.069 11.9867 250.573 10.292H250.201Z" fill="#FF8F3E"/>
</mask>
<g mask="url(#mask0_110_381)">
<rect x="-21.7495" y="-5.54065" width="126.846" height="56.9511" fill="white"/>
<rect x="105" y="-6" width="164" height="60" fill="#FF8F3E"/>
<circle cx="6.72603" cy="43.6445" r="12.9434" fill="#0C0C0C"/>
<circle cx="75.3262" cy="8.69736" r="9.0604" fill="#0C0C0C"/>
<circle cx="253.946" cy="52.7049" r="27.1812" fill="black"/>
<circle cx="141.355" cy="18.3547" r="10.3547" fill="black"/>
</g>
</svg>
